<svg display="none" xmlns="http://www.w3.org/2000/svg">

        <symbol id="tooltip" viewBox="0 0 24 24">
            <g>
            <path d="M20.4 19h-3.62l-3.79 3.79a1.395 1.395 0 0 1-1.98 0L7.22 19H3.6a2.8 2.8 0 0 1-2.8-2.8V3.599a2.8 2.8 0 0 1 2.8-2.8h16.8a2.8 2.8 0 0 1 2.8 2.8v12.6a2.8 2.8 0 0 1-2.8 2.8zm0-14A1.4 1.4 0 0 0 19 3.598H5a1.4 1.4 0 0 0-1.4 1.4v9.8A1.4 1.4 0 0 0 5 16.2h2.8c.386 0 .736.157.99.41L12 19.82l3.21-3.21c.253-.253.603-.41.99-.41H19a1.4 1.4 0 0 0 1.4-1.4zm-4.2 8.4H7.8a1.4 1.4 0 1 1 0-2.8h8.4a1.4 1.4 0 0 1 0 2.8zm0-4.201H7.8a1.4 1.4 0 1 1 0-2.8h8.4a1.4 1.4 0 0 1 0 2.8z"/>
            <path d="M20.4 19h-3.62l-3.79 3.79a1.395 1.395 0 0 1-1.98 0L7.22 19H3.6a2.8 2.8 0 0 1-2.8-2.8V3.599a2.8 2.8 0 0 1 2.8-2.8h16.8a2.8 2.8 0 0 1 2.8 2.8v12.6a2.8 2.8 0 0 1-2.8 2.8zm0-14A1.4 1.4 0 0 0 19 3.598H5a1.4 1.4 0 0 0-1.4 1.4v9.8A1.4 1.4 0 0 0 5 16.2h2.8c.386 0 .736.157.99.41L12 19.82l3.21-3.21c.253-.253.603-.41.99-.41H19a1.4 1.4 0 0 0 1.4-1.4zm-4.2 8.4H7.8a1.4 1.4 0 1 1 0-2.8h8.4a1.4 1.4 0 0 1 0 2.8zm0-4.201H7.8a1.4 1.4 0 1 1 0-2.8h8.4a1.4 1.4 0 0 1 0 2.8z"/>
            </g>
        </symbol>

        <symbol id="card" viewBox="0 0 19 21">
            <g>
            <path d="M18.993 11.308c0 2.678-2.125 4.849-4.747 4.849-1.554 0-2.914-.775-3.774-1.957l-.023.017-.95-1.293-.949 1.293-.013-.01c-.866 1.177-2.231 1.95-3.784 1.95-2.621 0-4.746-2.171-4.746-4.85 0-1.091.366-2.089.962-2.9l-.013-.01S7.918-.007 9.5-.007c1.582 0 8.543 8.406 8.543 8.406l-.013.01c.596.81.963 1.808.963 2.9zM7.918 17.773v-1.616c0-.892.708-1.617 1.582-1.617.874 0 1.582.725 1.582 1.617v1.616c.874 0 1.582.724 1.582 1.617 0 .892-.708 1.617-1.582 1.617H7.918c-.874 0-1.582-.725-1.582-1.617 0-.893.708-1.617 1.582-1.617z"/>
            <path d="M18.993 11.308c0 2.678-2.125 4.849-4.747 4.849-1.554 0-2.914-.775-3.774-1.957l-.023.017-.95-1.293-.949 1.293-.013-.01c-.866 1.177-2.231 1.95-3.784 1.95-2.621 0-4.746-2.171-4.746-4.85 0-1.091.366-2.089.962-2.9l-.013-.01S7.918-.007 9.5-.007c1.582 0 8.543 8.406 8.543 8.406l-.013.01c.596.81.963 1.808.963 2.9zM7.918 17.773v-1.616c0-.892.708-1.617 1.582-1.617.874 0 1.582.725 1.582 1.617v1.616c.874 0 1.582.724 1.582 1.617 0 .892-.708 1.617-1.582 1.617H7.918c-.874 0-1.582-.725-1.582-1.617 0-.893.708-1.617 1.582-1.617z"/>
            </g>
        </symbol>

        <symbol id="basket" viewBox="0 0 20 20">
            <g>
            <path d="M19.946 7.765l.024.006-2.5 11.25-.024-.006c-.125.559-.6.984-1.196.984H3.75c-.596 0-1.071-.425-1.196-.984l-.024.006L.03 7.77l.024-.006C.034 7.677 0 7.594 0 7.5c0-.691.56-1.25 1.25-1.25h2.5a6.25 6.25 0 1 1 12.5 0h2.5c.69 0 1.25.559 1.25 1.25 0 .094-.034.177-.054.265zM10 2.5a3.75 3.75 0 0 0-3.75 3.75h7.5A3.75 3.75 0 0 0 10 2.5zm5 8.75c-.69 0-1.25-.56-1.25-1.25V8.75h-7.5V10a1.25 1.25 0 1 1-2.5 0V8.75h-.942l1.945 8.75h10.494l1.945-8.75h-.942V10c0 .69-.56 1.25-1.25 1.25z"/>
            <path d="M19.946 7.765l.024.006-2.5 11.25-.024-.006c-.125.559-.6.984-1.196.984H3.75c-.596 0-1.071-.425-1.196-.984l-.024.006L.03 7.77l.024-.006C.034 7.677 0 7.594 0 7.5c0-.691.56-1.25 1.25-1.25h2.5a6.25 6.25 0 1 1 12.5 0h2.5c.69 0 1.25.559 1.25 1.25 0 .094-.034.177-.054.265zM10 2.5a3.75 3.75 0 0 0-3.75 3.75h7.5A3.75 3.75 0 0 0 10 2.5zm5 8.75c-.69 0-1.25-.56-1.25-1.25V8.75h-7.5V10a1.25 1.25 0 1 1-2.5 0V8.75h-.942l1.945 8.75h10.494l1.945-8.75h-.942V10c0 .69-.56 1.25-1.25 1.25z"/>
            </g>
        </symbol>

        <symbol id="star" viewBox="0 0 20 19">
            <g>
            <path d="M5.335 18.302l4.715-2.235s2.943 1.38 4.815 2.26c-.607-.285 1.566 1.24 1.365-.876l-.5-5.306 3.487-3.884c-.56.623 1.54-1.08-.415-1.448-1.977-.373-5.52-.634-5.52-.634s-1.409-3.255-2.45-5.055c.485.838-.548-1.85-1.586-.04-1.032 1.801-2.544 5.11-2.544 5.11s-3.436.267-5.414.646c.775-.148-1.81-.08-.497 1.375l3.57 3.953-.484 5.319c.048-.526-.676 1.826 1.458.815z"/>
            <path d="M5.335 18.302l4.715-2.235s2.943 1.38 4.815 2.26c-.607-.285 1.566 1.24 1.365-.876l-.5-5.306 3.487-3.884c-.56.623 1.54-1.08-.415-1.448-1.977-.373-5.52-.634-5.52-.634s-1.409-3.255-2.45-5.055c.485.838-.548-1.85-1.586-.04-1.032 1.801-2.544 5.11-2.544 5.11s-3.436.267-5.414.646c.775-.148-1.81-.08-.497 1.375l3.57 3.953-.484 5.319c.048-.526-.676 1.826 1.458.815z"/>
            </g>
        </symbol>



</svg>